<mxfile host="app.diagrams.net" modified="2024-04-22T14:40:57.867Z" agent="Mozilla/5.0 (Macintosh; Intel Mac OS X 10_15_7) AppleWebKit/537.36 (KHTML, like Gecko) Chrome/123.0.0.0 Safari/537.36" etag="S7NoyQqXvwLjYmqgm7r2" version="24.2.2" type="device">
  <diagram name="PÃ¡gina-1" id="RP6IYavOEU-jizN7s-4D">
    <mxGraphModel dx="472" dy="2154" grid="1" gridSize="10" guides="1" tooltips="1" connect="1" arrows="1" fold="1" page="1" pageScale="1" pageWidth="827" pageHeight="1169" math="0" shadow="0">
      <root>
        <mxCell id="0" />
        <mxCell id="1" parent="0" />
        <mxCell id="Tb6pebVY6amShAPa5Qsf-9" value="2" style="ellipse;whiteSpace=wrap;html=1;aspect=fixed;" vertex="1" parent="1">
          <mxGeometry x="220" y="317" width="90" height="90" as="geometry" />
        </mxCell>
        <mxCell id="Tb6pebVY6amShAPa5Qsf-1" value="1" style="ellipse;whiteSpace=wrap;html=1;aspect=fixed;" vertex="1" parent="1">
          <mxGeometry x="374" y="20" width="80" height="80" as="geometry" />
        </mxCell>
        <mxCell id="Tb6pebVY6amShAPa5Qsf-2" value="" style="endArrow=classic;html=1;rounded=0;entryX=0.5;entryY=0;entryDx=0;entryDy=0;" edge="1" parent="1" target="Tb6pebVY6amShAPa5Qsf-1">
          <mxGeometry width="50" height="50" relative="1" as="geometry">
            <mxPoint x="414" y="-90" as="sourcePoint" />
            <mxPoint x="440" y="290" as="targetPoint" />
          </mxGeometry>
        </mxCell>
        <mxCell id="Tb6pebVY6amShAPa5Qsf-3" value="index = 0;&lt;div&gt;i = 0;&lt;/div&gt;" style="text;html=1;align=center;verticalAlign=middle;resizable=0;points=[];autosize=1;strokeColor=none;fillColor=none;" vertex="1" parent="1">
          <mxGeometry x="450" y="40" width="80" height="40" as="geometry" />
        </mxCell>
        <mxCell id="Tb6pebVY6amShAPa5Qsf-4" value="" style="endArrow=classic;html=1;rounded=0;exitX=0;exitY=1;exitDx=0;exitDy=0;entryX=1;entryY=0;entryDx=0;entryDy=0;" edge="1" parent="1" source="Tb6pebVY6amShAPa5Qsf-11" target="Tb6pebVY6amShAPa5Qsf-7">
          <mxGeometry width="50" height="50" relative="1" as="geometry">
            <mxPoint x="400.71572875253787" y="280.28427124746213" as="sourcePoint" />
            <mxPoint x="295" y="332" as="targetPoint" />
          </mxGeometry>
        </mxCell>
        <mxCell id="Tb6pebVY6amShAPa5Qsf-7" value="10" style="ellipse;whiteSpace=wrap;html=1;aspect=fixed;" vertex="1" parent="1">
          <mxGeometry x="225" y="322" width="80" height="80" as="geometry" />
        </mxCell>
        <mxCell id="Tb6pebVY6amShAPa5Qsf-8" value="return index" style="text;html=1;align=center;verticalAlign=middle;resizable=0;points=[];autosize=1;strokeColor=none;fillColor=none;" vertex="1" parent="1">
          <mxGeometry x="220" y="407" width="90" height="30" as="geometry" />
        </mxCell>
        <mxCell id="Tb6pebVY6amShAPa5Qsf-10" value="~(i&amp;lt;capacity)" style="text;html=1;align=center;verticalAlign=middle;resizable=0;points=[];autosize=1;strokeColor=none;fillColor=none;" vertex="1" parent="1">
          <mxGeometry x="275" y="280" width="90" height="30" as="geometry" />
        </mxCell>
        <mxCell id="Tb6pebVY6amShAPa5Qsf-11" value="2" style="ellipse;whiteSpace=wrap;html=1;aspect=fixed;" vertex="1" parent="1">
          <mxGeometry x="374" y="170" width="80" height="80" as="geometry" />
        </mxCell>
        <mxCell id="Tb6pebVY6amShAPa5Qsf-12" value="" style="endArrow=classic;html=1;rounded=0;entryX=0.5;entryY=0;entryDx=0;entryDy=0;exitX=0.5;exitY=1;exitDx=0;exitDy=0;" edge="1" parent="1" target="Tb6pebVY6amShAPa5Qsf-11" source="Tb6pebVY6amShAPa5Qsf-1">
          <mxGeometry width="50" height="50" relative="1" as="geometry">
            <mxPoint x="414" y="160" as="sourcePoint" />
            <mxPoint x="440" y="440" as="targetPoint" />
          </mxGeometry>
        </mxCell>
        <mxCell id="Tb6pebVY6amShAPa5Qsf-13" value="" style="endArrow=classic;html=1;rounded=0;exitX=1;exitY=1;exitDx=0;exitDy=0;" edge="1" parent="1" source="Tb6pebVY6amShAPa5Qsf-11" target="Tb6pebVY6amShAPa5Qsf-14">
          <mxGeometry width="50" height="50" relative="1" as="geometry">
            <mxPoint x="410.71572875253787" y="290.28427124746213" as="sourcePoint" />
            <mxPoint x="600" y="270" as="targetPoint" />
          </mxGeometry>
        </mxCell>
        <mxCell id="Tb6pebVY6amShAPa5Qsf-14" value="3" style="ellipse;whiteSpace=wrap;html=1;aspect=fixed;" vertex="1" parent="1">
          <mxGeometry x="650" y="300" width="80" height="80" as="geometry" />
        </mxCell>
        <mxCell id="Tb6pebVY6amShAPa5Qsf-15" value="i&amp;lt;capacity" style="text;html=1;align=center;verticalAlign=middle;resizable=0;points=[];autosize=1;strokeColor=none;fillColor=none;" vertex="1" parent="1">
          <mxGeometry x="450" y="270" width="80" height="30" as="geometry" />
        </mxCell>
        <mxCell id="Tb6pebVY6amShAPa5Qsf-16" value="" style="endArrow=classic;html=1;rounded=0;exitX=0;exitY=1;exitDx=0;exitDy=0;entryX=1;entryY=0;entryDx=0;entryDy=0;" edge="1" parent="1" source="Tb6pebVY6amShAPa5Qsf-14" target="Tb6pebVY6amShAPa5Qsf-20">
          <mxGeometry width="50" height="50" relative="1" as="geometry">
            <mxPoint x="390" y="310" as="sourcePoint" />
            <mxPoint x="560" y="440" as="targetPoint" />
          </mxGeometry>
        </mxCell>
        <mxCell id="Tb6pebVY6amShAPa5Qsf-17" value="" style="endArrow=classic;html=1;rounded=0;exitX=1;exitY=1;exitDx=0;exitDy=0;entryX=0;entryY=0;entryDx=0;entryDy=0;" edge="1" parent="1" source="Tb6pebVY6amShAPa5Qsf-14" target="Tb6pebVY6amShAPa5Qsf-24">
          <mxGeometry width="50" height="50" relative="1" as="geometry">
            <mxPoint x="622" y="308" as="sourcePoint" />
            <mxPoint x="741.7157287525381" y="388.7157287525383" as="targetPoint" />
          </mxGeometry>
        </mxCell>
        <mxCell id="Tb6pebVY6amShAPa5Qsf-18" value="children[i] == null || children[i].data.compareTo(elem)==0" style="text;html=1;align=center;verticalAlign=middle;resizable=0;points=[];autosize=1;strokeColor=none;fillColor=none;" vertex="1" parent="1">
          <mxGeometry x="390" y="402" width="320" height="30" as="geometry" />
        </mxCell>
        <mxCell id="Tb6pebVY6amShAPa5Qsf-19" value="~(children[i] == null || children[i].data.compareTo(elem)==0)" style="text;html=1;align=center;verticalAlign=middle;resizable=0;points=[];autosize=1;strokeColor=none;fillColor=none;" vertex="1" parent="1">
          <mxGeometry x="750" y="380" width="340" height="30" as="geometry" />
        </mxCell>
        <mxCell id="Tb6pebVY6amShAPa5Qsf-20" value="4" style="ellipse;whiteSpace=wrap;html=1;aspect=fixed;" vertex="1" parent="1">
          <mxGeometry x="500" y="460" width="80" height="80" as="geometry" />
        </mxCell>
        <mxCell id="Tb6pebVY6amShAPa5Qsf-22" value="break" style="text;html=1;align=center;verticalAlign=middle;resizable=0;points=[];autosize=1;strokeColor=none;fillColor=none;" vertex="1" parent="1">
          <mxGeometry x="520" y="540" width="50" height="30" as="geometry" />
        </mxCell>
        <mxCell id="Tb6pebVY6amShAPa5Qsf-23" value="" style="endArrow=classic;html=1;rounded=0;exitX=0;exitY=0.5;exitDx=0;exitDy=0;entryX=1;entryY=1;entryDx=0;entryDy=0;" edge="1" parent="1" source="Tb6pebVY6amShAPa5Qsf-20" target="Tb6pebVY6amShAPa5Qsf-7">
          <mxGeometry width="50" height="50" relative="1" as="geometry">
            <mxPoint x="672" y="368" as="sourcePoint" />
            <mxPoint x="570" y="450" as="targetPoint" />
          </mxGeometry>
        </mxCell>
        <mxCell id="Tb6pebVY6amShAPa5Qsf-24" value="5" style="ellipse;whiteSpace=wrap;html=1;aspect=fixed;" vertex="1" parent="1">
          <mxGeometry x="810" y="467" width="80" height="80" as="geometry" />
        </mxCell>
        <mxCell id="Tb6pebVY6amShAPa5Qsf-25" value="children[i].data.compareTo(elem)&amp;gt;0" style="text;html=1;align=center;verticalAlign=middle;resizable=0;points=[];autosize=1;strokeColor=none;fillColor=none;rotation=-60;" vertex="1" parent="1">
          <mxGeometry x="660" y="655" width="210" height="30" as="geometry" />
        </mxCell>
        <mxCell id="Tb6pebVY6amShAPa5Qsf-26" value="" style="endArrow=classic;html=1;rounded=0;exitX=1;exitY=1;exitDx=0;exitDy=0;entryX=0;entryY=0;entryDx=0;entryDy=0;" edge="1" parent="1" source="Tb6pebVY6amShAPa5Qsf-24" target="Tb6pebVY6amShAPa5Qsf-31">
          <mxGeometry width="50" height="50" relative="1" as="geometry">
            <mxPoint x="728" y="368" as="sourcePoint" />
            <mxPoint x="1050" y="600" as="targetPoint" />
          </mxGeometry>
        </mxCell>
        <mxCell id="Tb6pebVY6amShAPa5Qsf-27" value="" style="endArrow=classic;html=1;rounded=0;exitX=0;exitY=1;exitDx=0;exitDy=0;entryX=1;entryY=0;entryDx=0;entryDy=0;" edge="1" parent="1" source="Tb6pebVY6amShAPa5Qsf-24" target="Tb6pebVY6amShAPa5Qsf-28">
          <mxGeometry width="50" height="50" relative="1" as="geometry">
            <mxPoint x="938" y="515" as="sourcePoint" />
            <mxPoint x="800" y="600" as="targetPoint" />
          </mxGeometry>
        </mxCell>
        <mxCell id="Tb6pebVY6amShAPa5Qsf-28" value="6" style="ellipse;whiteSpace=wrap;html=1;aspect=fixed;" vertex="1" parent="1">
          <mxGeometry x="590" y="740" width="80" height="80" as="geometry" />
        </mxCell>
        <mxCell id="Tb6pebVY6amShAPa5Qsf-29" value="index--&lt;div&gt;break&lt;/div&gt;" style="text;html=1;align=center;verticalAlign=middle;resizable=0;points=[];autosize=1;strokeColor=none;fillColor=none;" vertex="1" parent="1">
          <mxGeometry x="600" y="820" width="60" height="40" as="geometry" />
        </mxCell>
        <mxCell id="Tb6pebVY6amShAPa5Qsf-30" value="" style="endArrow=classic;html=1;rounded=0;exitX=0;exitY=0.5;exitDx=0;exitDy=0;entryX=0.725;entryY=0.936;entryDx=0;entryDy=0;entryPerimeter=0;" edge="1" parent="1" source="Tb6pebVY6amShAPa5Qsf-28" target="Tb6pebVY6amShAPa5Qsf-7">
          <mxGeometry width="50" height="50" relative="1" as="geometry">
            <mxPoint x="680" y="570" as="sourcePoint" />
            <mxPoint x="730" y="520" as="targetPoint" />
          </mxGeometry>
        </mxCell>
        <mxCell id="Tb6pebVY6amShAPa5Qsf-31" value="7" style="ellipse;whiteSpace=wrap;html=1;aspect=fixed;" vertex="1" parent="1">
          <mxGeometry x="1040" y="720" width="80" height="80" as="geometry" />
        </mxCell>
        <mxCell id="Tb6pebVY6amShAPa5Qsf-32" value="&lt;span style=&quot;color: rgb(0, 0, 0); font-family: Helvetica; font-size: 12px; font-style: normal; font-variant-ligatures: normal; font-variant-caps: normal; font-weight: 400; letter-spacing: normal; orphans: 2; text-align: center; text-indent: 0px; text-transform: none; widows: 2; word-spacing: 0px; -webkit-text-stroke-width: 0px; white-space: nowrap; background-color: rgb(251, 251, 251); text-decoration-thickness: initial; text-decoration-style: initial; text-decoration-color: initial; display: inline !important; float: none;&quot;&gt;~(children[i].data.compareTo(elem)&amp;gt;0)&lt;/span&gt;" style="text;whiteSpace=wrap;html=1;rotation=45;" vertex="1" parent="1">
          <mxGeometry x="827" y="630" width="220" height="40" as="geometry" />
        </mxCell>
        <mxCell id="Tb6pebVY6amShAPa5Qsf-33" value="" style="endArrow=classic;html=1;rounded=0;exitX=1;exitY=1;exitDx=0;exitDy=0;entryX=0;entryY=0.5;entryDx=0;entryDy=0;" edge="1" parent="1" source="Tb6pebVY6amShAPa5Qsf-31" target="Tb6pebVY6amShAPa5Qsf-36">
          <mxGeometry width="50" height="50" relative="1" as="geometry">
            <mxPoint x="938" y="515" as="sourcePoint" />
            <mxPoint x="960" y="760" as="targetPoint" />
          </mxGeometry>
        </mxCell>
        <mxCell id="Tb6pebVY6amShAPa5Qsf-35" value="children[i].data.compareTo(elem)&amp;lt;0" style="text;html=1;align=center;verticalAlign=middle;resizable=0;points=[];autosize=1;strokeColor=none;fillColor=none;" vertex="1" parent="1">
          <mxGeometry x="1100" y="790" width="210" height="30" as="geometry" />
        </mxCell>
        <mxCell id="Tb6pebVY6amShAPa5Qsf-36" value="8" style="ellipse;whiteSpace=wrap;html=1;aspect=fixed;" vertex="1" parent="1">
          <mxGeometry x="1320" y="750" width="80" height="80" as="geometry" />
        </mxCell>
        <mxCell id="Tb6pebVY6amShAPa5Qsf-38" value="~(children[i].data.compareTo(elem)&amp;lt;0)" style="text;html=1;align=center;verticalAlign=middle;resizable=0;points=[];autosize=1;strokeColor=none;fillColor=none;rotation=-60;" vertex="1" parent="1">
          <mxGeometry x="1060" y="500" width="230" height="30" as="geometry" />
        </mxCell>
        <mxCell id="Tb6pebVY6amShAPa5Qsf-40" value="index++" style="text;html=1;align=center;verticalAlign=middle;resizable=0;points=[];autosize=1;strokeColor=none;fillColor=none;" vertex="1" parent="1">
          <mxGeometry x="1330" y="830" width="70" height="30" as="geometry" />
        </mxCell>
        <mxCell id="Tb6pebVY6amShAPa5Qsf-41" value="i++" style="text;html=1;align=center;verticalAlign=middle;resizable=0;points=[];autosize=1;strokeColor=none;fillColor=none;" vertex="1" parent="1">
          <mxGeometry x="1350" y="230" width="40" height="30" as="geometry" />
        </mxCell>
        <mxCell id="Tb6pebVY6amShAPa5Qsf-42" value="9" style="ellipse;whiteSpace=wrap;html=1;aspect=fixed;" vertex="1" parent="1">
          <mxGeometry x="1300" y="255" width="80" height="80" as="geometry" />
        </mxCell>
        <mxCell id="Tb6pebVY6amShAPa5Qsf-43" value="" style="endArrow=classic;html=1;rounded=0;exitX=1;exitY=0;exitDx=0;exitDy=0;entryX=0;entryY=1;entryDx=0;entryDy=0;" edge="1" parent="1" source="Tb6pebVY6amShAPa5Qsf-31" target="Tb6pebVY6amShAPa5Qsf-42">
          <mxGeometry width="50" height="50" relative="1" as="geometry">
            <mxPoint x="870" y="520" as="sourcePoint" />
            <mxPoint x="920" y="470" as="targetPoint" />
          </mxGeometry>
        </mxCell>
        <mxCell id="Tb6pebVY6amShAPa5Qsf-44" value="" style="endArrow=classic;html=1;rounded=0;exitX=1;exitY=0;exitDx=0;exitDy=0;entryX=0.5;entryY=1;entryDx=0;entryDy=0;" edge="1" parent="1" source="Tb6pebVY6amShAPa5Qsf-36" target="Tb6pebVY6amShAPa5Qsf-42">
          <mxGeometry width="50" height="50" relative="1" as="geometry">
            <mxPoint x="870" y="520" as="sourcePoint" />
            <mxPoint x="920" y="470" as="targetPoint" />
          </mxGeometry>
        </mxCell>
        <mxCell id="Tb6pebVY6amShAPa5Qsf-47" value="" style="edgeStyle=none;orthogonalLoop=1;jettySize=auto;html=1;rounded=0;exitX=0;exitY=0.5;exitDx=0;exitDy=0;entryX=1;entryY=0.5;entryDx=0;entryDy=0;" edge="1" parent="1" source="Tb6pebVY6amShAPa5Qsf-42" target="Tb6pebVY6amShAPa5Qsf-11">
          <mxGeometry width="100" relative="1" as="geometry">
            <mxPoint x="1010" y="210" as="sourcePoint" />
            <mxPoint x="560" y="210" as="targetPoint" />
            <Array as="points" />
          </mxGeometry>
        </mxCell>
      </root>
    </mxGraphModel>
  </diagram>
</mxfile>
